<svg version="1.1" id="Layer_1" xmlns="http://www.w3.org/2000/svg" x="0" y="0" viewBox="0 0 1266 400" style="enable-background:new 0 0 1266 400" xml:space="preserve"><style>.st0{fill:#2e2c29}.st3{fill:#81b64c}</style><path class="st0" d="M145 400c151.9 0 145-46.5 145-55.9 0-35.8-13.4-74.5-44.4-98.1-16.1-12.3-25.1-23-30.2-32.6 10.6 0 12.9-1.8 16.8-7.3 13.1-18.8 18.9-38.2 16-61.2-.8-6.2-3.6-10.1-8.7-13.4l-13.9-9.1c4.6-10.7 7.1-22.3 7.1-34.5C232.6 39.2 193.3 0 145 0S57.4 39.2 57.4 87.8c0 12.1 2.5 23.8 7.1 34.5l-13.9 9.1c-5.1 3.4-8 7.3-8.7 13.4-3 23 2.9 42.4 16 61.2 3.8 5.5 6.1 7.3 16.8 7.3-5.1 9.5-14 20.2-30.2 32.6C13.5 269.5 0 308.1 0 344c0 9.5-6.9 56 145 56z"/><path class="st0" d="M287.9 346c18.1 0 35.9-3.1 51.5-9.1 7 4 18.5 6.4 37.1 6.4 27.5 0 38.2-5.2 45.4-13.6 7.2 8.3 17.9 13.6 45.4 13.6 28.7 0 40.4-6.4 47.5-16.2 18 11.9 40.4 18.3 65 18.3 22.9 0 46.8-4.1 65.1-12.7 19.4 9.5 42.4 12.9 66.2 12.9 25 0 45.5-5.3 61.3-14.1 19.9 10.4 43.8 14.1 68.5 14.1 20.3 0 37.6-3.5 51.9-9.5 7.7 5.7 17.2 9 27.4 9 8.9 0 17.2-2.5 24.3-7 10.5 4.8 22.4 7.5 35.4 7.5 13.8 0 27.3-3.3 38.7-9.3 11.1 5.8 23.8 9.1 37.4 9.1 13.2 0 25.6-3.1 36.4-8.6 6.3 4.9 14.3 7.8 28 7.8 12.6 0 19.8-2.3 25.8-6.2 6 3.9 13.2 6.2 25.9 6.2 12.6 0 19.8-2.3 25.8-6.2 6 3.9 13.2 6.2 25.9 6.2 25.8 0 42.8-17 42.8-38v-54c0-42.1-27.3-69.5-66.8-69.1-9.4.1-18 1.9-25.7 4.8-7.7-3.2-16.1-4.8-25.1-4.8-5.5 0-10.6.6-15.3 1.7-2.9-.7-5.8-1-13.5-1-13.2 0-21.1 2.8-27.4 7.6-10.9-5.6-23.3-8.7-36.7-8.7-13.8 0-26.6 3.3-37.7 9.3-11.3-6-24.6-9.1-38.4-9.1-19.5 0-36.5 5.9-49.9 16 11.5-24.8-.7-45.1-17.3-53.4-18.1-8.9-41.6-14.2-64.1-14.2-25.8 0-46.9 6-62.8 15.8-15.3-9.3-46.2-15.8-67-15.8-33.3 0-58.6 9.9-75.4 25.2-17.4-16.1-41.1-25.4-69.3-25.4-30 0-54.9 10.6-72.9 28.2-18.3-21.9-46.1-29-69.6-28.1 0-30.9-20.5-43.3-55.1-43.3-21.7 0-30 3-39.5 8-15.1-5.5-31.8-8.3-48.8-8.3-75.3 0-133.8 54.2-133.8 129s58.3 129 133.4 129z"/><path d="M1116.3 309.5c-1.9 0-3.2-1.5-3.2-3.4v-84.7c0-1.9 1.5-3.4 3.2-3.4h9.3c1.9 0 3.2 1.5 3.2 3.4v4.8c1.3-1.9 7.3-8.9 21.1-8.9 10.7 0 18.6 4.2 24.3 13.1 0 0 6.9-12.9 27-13.1 20.2-.2 31.8 11.7 31.8 34.5V306c0 1.9-1.5 3.4-3.2 3.4h-10c-1.9 0-3.2-1.5-3.2-3.4v-52.3c0-14-5.8-21.8-18.1-21.8-11.8 0-17.5 8.9-17.5 25.4V306c0 1.9-1.5 3.4-3.2 3.4h-9.9c-1.9 0-3.2-1.5-3.2-3.4v-52.3c0-14-5.5-21.8-17.2-21.8-12.4 0-18.3 8.9-18.3 25.4V306c0 1.9-1.5 3.4-3.2 3.4h-9.7zm-59.7-13.7c16.5 0 28.8-12.7 28.8-32.2s-12.3-32-28.8-32-29 12.5-29 32 12.5 32.2 29 32.2zm0 14.6c-25.6 0-44.6-19.4-44.6-46.8 0-27.1 19-46.6 44.6-46.6s44.4 19.2 44.4 46.6c0 27.3-18.8 46.8-44.4 46.8zm-76.3.2c-28.2 0-45.9-19.5-45.9-46.8 0-27.3 17.7-46.6 45.9-46.6 8.5 0 16.1 1.7 22.6 5.3 1.1.6 1.9 1.9 1.9 3.2v12.9c0 1.9-2.3 2.9-3.6 1.5-5.6-5.8-13.1-8.5-21.1-8.5-18 0-29 12.3-29 32s11 32.2 29 32.2c8 0 15.6-2.5 21.3-8.3 1.3-1.3 3.6-.4 3.6 1.5v12.9c0 1.3-.9 2.6-1.9 3.2-6.5 3.6-14.4 5.5-22.8 5.5zm-59.9-.4c-5.7 0-11-4.4-11-11 0-6.3 5.1-11 11-11s10.6 4.4 10.6 11c0 6.5-4.9 11-10.6 11zm-79.5.4c-21.8 0-40-3.2-53.7-10.8-1.9-1.1-2.6-3.9-1.7-5.9l9.7-21.2c1.1-2.3 4.1-3.2 6.4-1.9 12.5 6.8 25.6 8.9 41 8.9 18.8 0 25.8-5.1 25.8-12.9 0-23.1-85 .4-85-55.7 0-26.7 24.1-45.5 65.1-45.5 17.5 0 35.5 4 48.9 10.6 2.1 1.1 3.1 3.8 2.1 5.9l-9.7 20.9c-1.1 2.3-3.8 3.2-6.1 2.1-12.5-6.1-23.5-8.6-35.1-8.6-18.2 0-26.2 5.7-26.2 13.1 0 24.1 85 .8 85 56.3-.1 26.3-24.4 44.7-66.5 44.7zm-130.2 0c-21.8 0-40-3.2-53.7-10.8-1.9-1.1-2.6-3.9-1.7-5.9l9.7-21.2c1.1-2.3 4.1-3.2 6.4-1.9 12.5 6.8 25.6 8.9 41 8.9 18.8 0 25.8-5.1 25.8-12.9 0-23.1-85 .4-85-55.7 0-26.7 24.1-45.5 65.1-45.5 17.5 0 35.5 4 48.9 10.6 2.1 1.1 3.1 3.8 2.1 5.9l-9.7 20.9c-1.1 2.3-3.8 3.2-6.1 2.1-12.5-6.1-23.5-8.6-35.1-8.6-18.2 0-26.2 5.7-26.2 13.1 0 24.1 85 .8 85 56.3-.1 26.3-24.4 44.7-66.5 44.7zm-167.2-85.1h59.2c-1.5-17.5-11.2-29.2-29.2-29.2-17.9 0-28.7 11.2-30 29.2zm35.4 84.9c-44 0-75.1-26.5-75.1-72.6 0-42.1 26.5-72.4 69.3-72.4 41.5 0 67 27.7 67 72.8 0 2.1-.2 5-.4 7.4-.2 2.1-1.7 3.6-3.8 3.6h-92.2c1.9 17.1 15.8 30.1 40.8 30.1 10.2 0 19.9-2.2 33.6-8.9 2.3-1.2 5.3-.4 6.4 1.9l9.7 21.1c1.1 2.3.2 4.8-1.9 6-12.5 7-32.5 11-53.4 11zm-219.5-2.1c-2.8 0-4.9-2.1-4.9-4.8V126.9c0-2.8 2.1-4.9 4.9-4.9h31.1c2.8 0 4.9 2.1 4.9 4.9v52.2c10.6-10.3 20.5-13.7 38.5-13.7 33.4 0 52.7 19.5 52.7 62.2v75.8c0 2.7-2.1 4.8-4.9 4.8h-31.1c-2.8 0-4.9-2.1-4.9-4.8V234c0-22.9-6.6-33.3-22.4-33.3-18.8 0-27.9 12.1-27.9 37.9v64.8c0 2.7-2.1 4.8-4.9 4.8h-31.1zM286 311c-56.7 0-99-39.6-99-94.6s42.5-94.6 99.4-94.4c16.3-.2 31.4 2.9 44.4 8.9 2.1 1 3.6 3.2 3.6 5.7v30.5c0 4.4-5.3 6.7-8.7 4-10.8-8.7-23.3-13.1-37.4-13.1-34.3 0-58.6 24.2-58.6 58.6 0 34.5 24.3 58.6 58.6 58.6 14.2 0 26.5-4.4 37.3-13.5 3.5-2.9 8.6-.5 8.6 3.9v30.7c0 2.3-1.5 4.5-3.6 5.5-12.8 6-28.1 9.2-44.6 9.2z" style="fill:#fff"/><path d="M130.9 366h28.3c94.2-1.7 96.9-20.1 96.9-21.4 0-6-.4-11.9-1.3-17.4-50.2-12.8-86.2-57.7-86.2-110 0-27.8 8.4-52.9 26.5-73.9l-18.8-12.4c13.4-9.7 22.1-25.5 22.1-43.3 0-22.4-13.8-41.7-33.4-49.6-6.2-2.5-49.8 141.1-49.8 141.1-.2 3.3-.2 7.6-.2 12.8 0 14.3 35 12.1 33.1 24.7-2.8 18.8-3.4 33.2-19.6 78.4-10.9 30.6-83.8 0-89 15-3.6 10.3-5.5 22-5.5 34.6 0 1.3 2.7 19.7 96.9 21.4z" style="fill:#5d9948"/><path class="st3" d="M143 292.8c6-27.4 11.3-56.6 14.6-74.1 4-21.8-29-25.7-42.6-27.7-.6 18.6-5.8 48.9-50.1 82.7-11.9 9.1-20.8 22.1-26 37.9 12 5.8 27.9 9.3 52.5 9.3 15.8 0 45 1.9 51.6-28.1zM166.2 178.9c5.2-13.6 4.6-22.8 4.6-22.8L149 130.7c23.2-9.9 37.2-28.6 37.2-50.3 0-17.3-8.3-32.8-21-42.5-6.2-2.5-13-4-20.1-4-29.5 0-53.4 23.9-53.4 53.5 0 17.8 8.7 33.6 22.1 43.3l-38.5 25.4c0 8.5 2 15.4 6 22.8h84.9z"/><path d="M142 44.9c30.8 4.8-14.2 40.6-28.4 38.9-13.5-1.7-.5-43.4 28.4-38.9z" style="fill:#b2e068"/></svg>